# xmcd
#
# Track frame offsets:
#	150
#	13015
#	29362
#	44927
#	57107
#	68915
#	83927
#	94827
#	106580
#	121457
#	135805
#	145167
#	156932
#
# Disc length: 2278 seconds
#
# Revision: 1
# Processed by: cddbd v1.4PL0 Copyright (c) Steve Scherf et al.
# Submitted via: audiograbber 1.80
#
DISCID=ac08e40d
DTITLE=Red Knuckles and The Trailblazers - Shades Of The Past
DYEAR=1900
DGENRE=
TTITLE0=Goin' Steady
TTITLE1=On Monday
TTITLE2=I Thought I Heard You Call My Name
TTITLE3=Wigwam Wiggle
TTITLE4=Blues Stay Away From Me
TTITLE5=The Golden Rocket
TTITLE6=If You Ain't Lovin', You Ain't Livin'
TTITLE7=I'm A One Woman Man
TTITLE8=The Girl Of My Dreams
TTITLE9=Shades Of The Past
TTITLE10=In The Jailhouse Now
TTITLE11=Nowhere Man
TTITLE12=Everybody's Rockin' But Me
EXTD=
EXTT0=
EXTT1=
EXTT2=
EXTT3=
EXTT4=
EXTT5=
EXTT6=
EXTT7=
EXTT8=
EXTT9=
EXTT10=
EXTT11=
EXTT12=
PLAYORDER=
